<?xml version="1.0" encoding="utf-8"?>
<!-- Generator: Adobe Illustrator 25.2.3, SVG Export Plug-In . SVG Version: 6.00 Build 0)  -->
<svg version="1.1" id="Layer_1" xmlns="http://www.w3.org/2000/svg" xmlns:xlink="http://www.w3.org/1999/xlink" x="0px" y="0px"
	 viewBox="0 0 16 16" style="enable-background:new 0 0 16 16;" xml:space="preserve">
<style type="text/css">
	.st0{fill:#1D4767;}
	.st1{fill:#FFFFFF;}
</style>
<circle class="st0" cx="8" cy="8" r="8"/>
<g>
	<path class="st1" d="M6.26,5.36C6.19,5.01,5.43,5.35,5.35,5.54C5.02,6.27,4.73,7.01,4.44,7.75c-0.2-0.76-0.4-1.53-0.59-2.29
		C3.77,5.16,3,5.45,2.93,5.65c-0.59,1.61-1.17,3.22-1.76,4.83c-0.1,0.26,0.81,0.15,0.92-0.13c0.4-1.09,0.8-2.18,1.2-3.28
		c0.19,0.73,0.38,1.47,0.57,2.2c-0.17,0.42-0.34,0.83-0.53,1.24c-0.12,0.27,0.79,0.17,0.92-0.12c0.18-0.39,0.35-0.79,0.51-1.19
		c0.02-0.03,0.03-0.06,0.04-0.09C5.07,8.4,5.34,7.68,5.62,6.96c0.25,1.21,0.5,2.42,0.75,3.62c0.06,0.3,0.99,0.08,0.92-0.25
		C6.95,8.68,6.61,7.02,6.26,5.36z"/>
	<path class="st1" d="M13.84,7.74c-0.62-0.25-1.57-0.08-1.65-1c-0.05-0.53,0.37-1.23,0.96-1.01c0.45,0.17,0.57,0.62,0.33,1.01
		c-0.08,0.12,0.76,0.08,0.9-0.15c0.48-0.77-0.32-1.31-1.03-1.37c-0.7-0.06-1.41,0.22-1.79,0.83c-0.56,0.89-0.2,1.69,0.79,1.91
		c0.75,0.17,1.44,0.34,1.56,1.24c0.08,0.63-0.13,1.04-0.75,1.08c-0.64,0.04-0.83-0.39-0.62-0.98c0.07-0.18-0.81-0.09-0.9,0.15
		c-0.69,1.9,2.29,1.59,2.98,0.47C15.13,9.1,14.69,8.08,13.84,7.74z"/>
	<path class="st1" d="M9.74,7.64c-0.76-0.19-1.56-0.36-1.3-1.36c0.3-1.13,1.79-0.46,1.22,0.44c-0.08,0.12,0.76,0.08,0.9-0.15
		c0.89-1.42-2.15-1.86-2.84-0.59C7.28,6.8,7.44,7.61,8.4,7.9c0.73,0.22,1.47,0.21,1.69,1.13c0.15,0.64-0.07,1.17-0.73,1.21
		c-0.64,0.04-0.83-0.39-0.62-0.98c0.07-0.18-0.81-0.09-0.9,0.15c-0.7,1.92,2.43,1.61,3.05,0.35C11.35,8.81,10.68,7.88,9.74,7.64z"/>
</g>
</svg>
